# xmcd CD database file
#
# Track frame offsets:
#	150
#	14455
#	33762
#	50062
#	65847
#	81660
#	98570
#	116285
#	135270
#	153175
#	164422
#	181592
#	199002
#	213422
#	236312
#	252132
#	264422
#
# Disc length: 3823 seconds
#
# Revision: 0
# Processed by: cddbd v1.5.2PL0 Copyright (c) Steve Scherf et al.
# Submitted via: CD2WAV32(JP) R3.22
#
DISCID=d80eed11
DTITLE=いろいろ - フォーク全曲集
DYEAR=2007
DGENRE=Acid
TTITLE0=神田川
TTITLE1=夢一夜
TTITLE2=なごり雪
TTITLE3=あの人の手紙
TTITLE4=置手紙
TTITLE5=アビーロードの街
TTITLE6=赤ちょうちん
TTITLE7=妹
TTITLE8=ささやかなこの人生
TTITLE9=ペテン師
TTITLE10=海岸通
TTITLE11=あの唄はもう唄わないのですか
TTITLE12=２２才の別れ
TTITLE13=いつか冷たい雨が
TTITLE14=雨の物語
TTITLE15=僕の胸でおやすみ
TTITLE16=君と歩いた青春
EXTD=
EXTT0=
EXTT1=
EXTT2=
EXTT3=
EXTT4=
EXTT5=
EXTT6=
EXTT7=
EXTT8=
EXTT9=
EXTT10=
EXTT11=
EXTT12=
EXTT13=
EXTT14=
EXTT15=
EXTT16=
PLAYORDER=
